<svg data-v-423bf9ae="" xmlns="http://www.w3.org/2000/svg" viewBox="0 0 316.05635505468996 60" class="font"><!----><!----><!----><g data-v-423bf9ae="" id="f01d92e3-9908-465e-9b88-5dfbbf9fcdc4" fill="white" transform="matrix(6.036217558641619,0,0,6.036217558641619,-2.4748550164826213,-19.436621426779325)"><path d="M9.38 10.19Q8.67 13.16 5.11 13.16L5.11 13.16Q3.65 13.16 2.60 12.60Q1.54 12.04 0.97 10.97Q0.41 9.90 0.41 8.40L0.41 8.40Q0.41 6.90 0.97 5.83Q1.54 4.76 2.60 4.20Q3.65 3.64 5.11 3.64L5.11 3.64Q6.73 3.64 7.88 4.33Q9.03 5.03 9.31 6.44L9.31 6.44L6.51 7.53Q6.40 6.68 6.10 6.38Q5.81 6.09 5.19 6.09L5.19 6.09Q4.47 6.09 4.10 6.65Q3.74 7.21 3.74 8.40L3.74 8.40Q3.74 9.59 4.09 10.15Q4.44 10.71 5.17 10.71L5.17 10.71Q5.82 10.71 6.12 10.42Q6.41 10.12 6.50 9.45L6.50 9.45L9.38 10.19ZM15.43 5.88Q16.46 5.88 17.05 6.50Q17.63 7.11 17.63 8.23L17.63 8.23L17.63 13.02L14.41 13.02L14.41 9.07Q14.41 8.61 14.29 8.43Q14.18 8.25 13.92 8.25L13.92 8.25Q13.57 8.25 13.40 8.51Q13.24 8.78 13.24 9.35L13.24 9.35L13.24 13.02L10.02 13.02L10.02 3.22L13.24 3.22L13.24 7.45Q13.52 6.68 14.08 6.28Q14.64 5.88 15.43 5.88L15.43 5.88ZM26.17 11.30Q26.40 11.30 26.52 11.24L26.52 11.24L26.26 12.88Q25.79 13.16 25.23 13.16L25.23 13.16Q24.37 13.16 23.80 12.86Q23.23 12.56 23.03 11.98L23.03 11.98Q22.71 12.53 22.09 12.84Q21.46 13.16 20.54 13.16L20.54 13.16Q19.45 13.16 18.91 12.73Q18.38 12.31 18.38 11.49L18.38 11.49Q18.38 10.61 19.01 10.09Q19.64 9.56 21.11 9.24L21.11 9.24L22.50 8.93L22.50 8.65Q22.50 8.33 22.34 8.15Q22.18 7.97 21.87 7.97L21.87 7.97Q21.53 7.97 21.34 8.15Q21.14 8.34 21.13 8.82L21.13 8.82L18.47 8.41Q18.58 7.21 19.47 6.54Q20.37 5.88 22.05 5.88L22.05 5.88Q23.91 5.88 24.80 6.59Q25.69 7.31 25.69 8.76L25.69 8.76L25.69 10.72Q25.69 11.30 26.17 11.30L26.17 11.30ZM21.90 11.41Q22.16 11.41 22.33 11.23Q22.50 11.06 22.50 10.72L22.50 10.72L22.50 10.05L22.04 10.19Q21.74 10.28 21.57 10.46Q21.41 10.65 21.41 10.92L21.41 10.92Q21.41 11.16 21.55 11.28Q21.69 11.41 21.90 11.41L21.90 11.41ZM32.14 10.86L32.28 12.68Q31.93 12.89 31.34 13.03Q30.74 13.16 30.20 13.16L30.20 13.16Q28.69 13.16 27.94 12.58Q27.20 12.00 27.20 10.67L27.20 10.67L27.20 8.19L26.12 8.19L26.12 6.02L27.20 6.02L27.20 4.54L30.42 3.64L30.42 6.02L32.19 6.02L32.19 8.19L30.42 8.19L30.42 10.16Q30.42 10.64 30.63 10.84Q30.83 11.05 31.26 11.05L31.26 11.05Q31.78 11.05 32.14 10.86L32.14 10.86ZM38.11 10.86L38.25 12.68Q37.90 12.89 37.30 13.03Q36.71 13.16 36.16 13.16L36.16 13.16Q34.65 13.16 33.91 12.58Q33.17 12.00 33.17 10.67L33.17 10.67L33.17 8.19L32.09 8.19L32.09 6.02L33.17 6.02L33.17 4.54L36.39 3.64L36.39 6.02L38.15 6.02L38.15 8.19L36.39 8.19L36.39 10.16Q36.39 10.64 36.59 10.84Q36.79 11.05 37.23 11.05L37.23 11.05Q37.74 11.05 38.11 10.86L38.11 10.86ZM46.19 9.30Q46.19 9.83 46.12 10.14L46.12 10.14L41.66 10.14Q41.73 10.65 41.96 10.84Q42.18 11.02 42.63 11.02L42.63 11.02Q43.32 11.02 43.47 10.42L43.47 10.42L46.06 11.12Q45.82 12.12 44.89 12.64Q43.96 13.16 42.63 13.16L42.63 13.16Q40.64 13.16 39.61 12.22Q38.58 11.28 38.58 9.52L38.58 9.52Q38.58 7.78 39.60 6.83Q40.61 5.88 42.46 5.88L42.46 5.88Q44.27 5.88 45.23 6.80Q46.19 7.73 46.19 9.30L46.19 9.30ZM42.48 8.01Q42.11 8.01 41.92 8.22Q41.72 8.43 41.66 8.95L41.66 8.95L43.18 8.95Q43.13 8.47 42.97 8.24Q42.81 8.01 42.48 8.01L42.48 8.01ZM52.04 5.88Q52.53 5.88 52.77 6.05L52.77 6.05L52.50 8.68Q52.37 8.58 52.14 8.52Q51.90 8.46 51.62 8.46L51.62 8.46Q50.97 8.46 50.60 8.76Q50.23 9.07 50.23 9.66L50.23 9.66L50.23 13.02L47.01 13.02L47.01 6.02L49.91 6.02L49.98 7.77Q50.48 5.88 52.04 5.88L52.04 5.88Z"></path></g><!----><!----></svg>