<svg width="200" height="185" viewBox="0 0 200 185" fill="none" xmlns="http://www.w3.org/2000/svg">
<path d="M7.238 175.381C7.238 176.711 6.16 178.055 4.088 178.055C2.128 178.055 0.84 176.935 0.784 175.437H1.82C1.904 176.249 2.506 177.229 4.088 177.229C5.446 177.229 6.244 176.431 6.244 175.423C6.244 172.539 0.868 174.359 0.868 170.677C0.868 169.165 2.114 168.059 4.004 168.059C5.866 168.059 6.986 169.095 7.154 170.439H6.09C5.978 169.753 5.32 168.913 3.962 168.899C2.814 168.885 1.862 169.515 1.862 170.649C1.862 173.477 7.238 171.741 7.238 175.381ZM9.41172 175.885V171.139H8.34772V170.313H9.41172V168.395H10.4057V170.313H12.5057V171.139H10.4057V175.885C10.4057 176.823 10.7277 177.117 11.6097 177.117H12.5057V177.957H11.4557C10.1257 177.957 9.41172 177.411 9.41172 175.885ZM13.674 174.121C13.674 171.727 15.228 170.201 17.328 170.201C18.868 170.201 19.918 171.027 20.352 171.993V170.313H21.332V177.957H20.352V176.263C19.904 177.243 18.84 178.069 17.314 178.069C15.228 178.069 13.674 176.515 13.674 174.121ZM20.352 174.135C20.352 172.231 19.078 171.055 17.51 171.055C15.9 171.055 14.668 172.175 14.668 174.121C14.668 176.053 15.9 177.215 17.51 177.215C19.078 177.215 20.352 176.039 20.352 174.135ZM24.5492 173.687V177.957H23.5692V170.313H24.5492V171.671C24.9692 170.733 25.8512 170.173 27.1672 170.173V171.195H26.9012C25.6272 171.195 24.5492 171.769 24.5492 173.687ZM28.9215 175.885V171.139H27.8575V170.313H28.9215V168.395H29.9155V170.313H32.0155V171.139H29.9155V175.885C29.9155 176.823 30.2375 177.117 31.1195 177.117H32.0155V177.957H30.9655C29.6355 177.957 28.9215 177.411 28.9215 175.885ZM48.6455 177.957V173.589C48.6455 171.895 47.7635 171.027 46.4055 171.027C45.0195 171.027 44.0395 171.951 44.0395 173.813V177.957H43.0735V173.589C43.0735 171.895 42.1775 171.027 40.8195 171.027C39.4195 171.027 38.4535 171.951 38.4535 173.813V177.957H37.4735V170.313H38.4535V171.629C38.9435 170.663 39.9095 170.173 40.9875 170.173C42.2615 170.173 43.3535 170.775 43.8155 172.049C44.2355 170.803 45.3555 170.173 46.5735 170.173C48.2675 170.173 49.6115 171.237 49.6115 173.477V177.957H48.6455ZM55.05 171.041C53.664 171.041 52.446 171.937 52.334 173.715H57.71C57.752 171.937 56.464 171.041 55.05 171.041ZM58.592 175.535C58.242 176.977 57.01 178.069 55.092 178.069C52.922 178.069 51.34 176.557 51.34 174.135C51.34 171.699 52.894 170.201 55.092 170.201C57.332 170.201 58.704 171.797 58.704 173.743C58.704 174.051 58.704 174.247 58.676 174.513H52.334C52.418 176.305 53.664 177.243 55.092 177.243C56.394 177.243 57.276 176.557 57.556 175.535H58.592ZM65.789 175.927C65.789 177.159 64.711 178.069 63.129 178.069C61.393 178.069 60.175 177.201 60.049 175.801H61.057C61.141 176.641 61.869 177.243 63.115 177.243C64.207 177.243 64.823 176.655 64.823 175.927C64.823 174.037 60.231 175.143 60.231 172.273C60.231 171.139 61.309 170.201 62.919 170.201C64.557 170.201 65.635 171.069 65.719 172.539H64.739C64.683 171.685 64.053 171.041 62.891 171.041C61.869 171.041 61.225 171.587 61.225 172.259C61.225 174.331 65.747 173.225 65.789 175.927ZM72.9257 175.927C72.9257 177.159 71.8477 178.069 70.2657 178.069C68.5297 178.069 67.3117 177.201 67.1857 175.801H68.1937C68.2777 176.641 69.0057 177.243 70.2517 177.243C71.3437 177.243 71.9597 176.655 71.9597 175.927C71.9597 174.037 67.3677 175.143 67.3677 172.273C67.3677 171.139 68.4457 170.201 70.0557 170.201C71.6937 170.201 72.7717 171.069 72.8557 172.539H71.8757C71.8197 171.685 71.1897 171.041 70.0277 171.041C69.0057 171.041 68.3617 171.587 68.3617 172.259C68.3617 174.331 72.8837 173.225 72.9257 175.927ZM74.3224 174.121C74.3224 171.727 75.8764 170.201 77.9764 170.201C79.5164 170.201 80.5664 171.027 81.0004 171.993V170.313H81.9804V177.957H81.0004V176.263C80.5524 177.243 79.4884 178.069 77.9624 178.069C75.8764 178.069 74.3224 176.515 74.3224 174.121ZM81.0004 174.135C81.0004 172.231 79.7264 171.055 78.1584 171.055C76.5484 171.055 75.3164 172.175 75.3164 174.121C75.3164 176.053 76.5484 177.215 78.1584 177.215C79.7264 177.215 81.0004 176.039 81.0004 174.135ZM83.7697 174.121C83.7697 171.727 85.3237 170.201 87.4237 170.201C88.9357 170.201 90.0137 171.013 90.4477 171.979V170.313H91.4277V178.153C91.4277 180.295 89.9577 181.709 87.8577 181.709C85.8837 181.709 84.5117 180.701 84.2037 179.105H85.1697C85.4917 180.141 86.4577 180.855 87.8577 180.855C89.3137 180.855 90.4477 179.889 90.4477 178.153V176.263C89.9997 177.243 88.9357 178.069 87.4237 178.069C85.3237 178.069 83.7697 176.515 83.7697 174.121ZM90.4477 174.135C90.4477 172.231 89.1737 171.055 87.6057 171.055C85.9957 171.055 84.7637 172.175 84.7637 174.121C84.7637 176.053 85.9957 177.215 87.6057 177.215C89.1737 177.215 90.4477 176.039 90.4477 174.135ZM93.6649 177.957V170.313H94.6449V177.957H93.6649ZM94.1549 168.871C93.7629 168.871 93.4409 168.563 93.4409 168.143C93.4409 167.723 93.7629 167.429 94.1549 167.429C94.5469 167.429 94.8689 167.723 94.8689 168.143C94.8689 168.563 94.5469 168.871 94.1549 168.871ZM102.59 177.957V173.589C102.59 171.895 101.666 171.027 100.266 171.027C98.8381 171.027 97.8441 171.923 97.8441 173.785V177.957H96.8641V170.313H97.8441V171.615C98.3341 170.663 99.3141 170.173 100.448 170.173C102.184 170.173 103.556 171.237 103.556 173.477V177.957H102.59ZM105.276 174.121C105.276 171.727 106.83 170.201 108.93 170.201C110.442 170.201 111.52 171.013 111.954 171.979V170.313H112.934V178.153C112.934 180.295 111.464 181.709 109.364 181.709C107.39 181.709 106.018 180.701 105.71 179.105H106.676C106.998 180.141 107.964 180.855 109.364 180.855C110.82 180.855 111.954 179.889 111.954 178.153V176.263C111.506 177.243 110.442 178.069 108.93 178.069C106.83 178.069 105.276 176.515 105.276 174.121ZM111.954 174.135C111.954 172.231 110.68 171.055 109.112 171.055C107.502 171.055 106.27 172.175 106.27 174.121C106.27 176.053 107.502 177.215 109.112 177.215C110.68 177.215 111.954 176.039 111.954 174.135ZM120.497 177.957L118.103 170.313H119.097L121.001 176.963L123.143 170.313H124.123L126.237 176.977L128.127 170.313H129.093L126.699 177.957H125.719L123.605 171.545L121.491 177.957H120.497ZM130.429 177.957V170.313H131.409V177.957H130.429ZM130.919 168.871C130.527 168.871 130.205 168.563 130.205 168.143C130.205 167.723 130.527 167.429 130.919 167.429C131.311 167.429 131.633 167.723 131.633 168.143C131.633 168.563 131.311 168.871 130.919 168.871ZM133.908 175.885V171.139H132.844V170.313H133.908V168.395H134.902V170.313H137.002V171.139H134.902V175.885C134.902 176.823 135.224 177.117 136.106 177.117H137.002V177.957H135.952C134.622 177.957 133.908 177.411 133.908 175.885ZM138.618 177.957V167.597H139.598V171.615C140.088 170.677 141.096 170.173 142.258 170.173C143.952 170.173 145.31 171.237 145.31 173.477V177.957H144.344V173.589C144.344 171.895 143.42 171.027 142.02 171.027C140.592 171.027 139.598 171.923 139.598 173.785V177.957H138.618ZM151.319 177.957V168.171H156.611V168.983H152.299V172.637H155.939V173.449H152.299V177.957H151.319ZM159.204 173.687V177.957H158.224V170.313H159.204V171.671C159.624 170.733 160.506 170.173 161.822 170.173V171.195H161.556C160.282 171.195 159.204 171.769 159.204 173.687ZM163.296 177.957V170.313H164.276V177.957H163.296ZM163.786 168.871C163.394 168.871 163.072 168.563 163.072 168.143C163.072 167.723 163.394 167.429 163.786 167.429C164.178 167.429 164.5 167.723 164.5 168.143C164.5 168.563 164.178 168.871 163.786 168.871ZM169.757 171.041C168.371 171.041 167.153 171.937 167.041 173.715H172.417C172.459 171.937 171.171 171.041 169.757 171.041ZM173.299 175.535C172.949 176.977 171.717 178.069 169.799 178.069C167.629 178.069 166.047 176.557 166.047 174.135C166.047 171.699 167.601 170.201 169.799 170.201C172.039 170.201 173.411 171.797 173.411 173.743C173.411 174.051 173.411 174.247 173.383 174.513H167.041C167.125 176.305 168.371 177.243 169.799 177.243C171.101 177.243 171.983 176.557 172.263 175.535H173.299ZM180.93 177.957V173.589C180.93 171.895 180.006 171.027 178.606 171.027C177.178 171.027 176.184 171.923 176.184 173.785V177.957H175.204V170.313H176.184V171.615C176.674 170.663 177.654 170.173 178.788 170.173C180.524 170.173 181.896 171.237 181.896 173.477V177.957H180.93ZM183.615 174.121C183.615 171.727 185.169 170.201 187.283 170.201C188.655 170.201 189.803 170.957 190.293 171.965V167.597H191.273V177.957H190.293V176.249C189.845 177.257 188.781 178.069 187.269 178.069C185.169 178.069 183.615 176.515 183.615 174.121ZM190.293 174.135C190.293 172.231 189.019 171.055 187.451 171.055C185.841 171.055 184.609 172.175 184.609 174.121C184.609 176.053 185.841 177.215 187.451 177.215C189.019 177.215 190.293 176.039 190.293 174.135ZM198.803 175.927C198.803 177.159 197.725 178.069 196.143 178.069C194.407 178.069 193.189 177.201 193.063 175.801H194.071C194.155 176.641 194.883 177.243 196.129 177.243C197.221 177.243 197.837 176.655 197.837 175.927C197.837 174.037 193.245 175.143 193.245 172.273C193.245 171.139 194.323 170.201 195.933 170.201C197.571 170.201 198.649 171.069 198.733 172.539H197.753C197.697 171.685 197.067 171.041 195.905 171.041C194.883 171.041 194.239 171.587 194.239 172.259C194.239 174.331 198.761 173.225 198.803 175.927Z" fill="#414141"/>
<g filter="url(#filter0_d_5_189)">
<path d="M46 60.9568C46 54.3294 51.3726 48.9568 58 48.9568H190V72.9568C190 79.5843 184.627 84.9568 178 84.9568H58C51.3726 84.9568 46 79.5843 46 72.9568V60.9568Z" fill="#D9D9D9"/>
</g>
<g filter="url(#filter1_d_5_189)">
<path d="M10 96.9568H142C148.627 96.9568 154 102.329 154 108.957V120.957C154 127.584 148.627 132.957 142 132.957H22C15.3726 132.957 10 127.584 10 120.957V96.9568Z" fill="#D9D9D9"/>
</g>
<g filter="url(#filter2_d_5_189)">
<path d="M10 0.956863H142C148.627 0.956863 154 6.32945 154 12.9569V24.9569C154 31.5843 148.627 36.9569 142 36.9569H22C15.3726 36.9569 10 31.5843 10 24.9569V0.956863Z" fill="#D9D9D9"/>
</g>
<line x1="58" y1="60.31" x2="145" y2="60.31" stroke="#BDBDBD" stroke-width="1.29377"/>
<line x1="54" y1="108.31" x2="141" y2="108.31" stroke="#BDBDBD" stroke-width="1.29377"/>
<line x1="54" y1="12.31" x2="141" y2="12.31" stroke="#BDBDBD" stroke-width="1.29377"/>
<line x1="58" y1="68.31" x2="145" y2="68.31" stroke="#BDBDBD" stroke-width="1.29377"/>
<line x1="54" y1="116.31" x2="141" y2="116.31" stroke="#BDBDBD" stroke-width="1.29377"/>
<line x1="54" y1="20.31" x2="141" y2="20.31" stroke="#BDBDBD" stroke-width="1.29377"/>
<line x1="58" y1="76.31" x2="145" y2="76.31" stroke="#BDBDBD" stroke-width="1.29377"/>
<line x1="54" y1="124.31" x2="141" y2="124.31" stroke="#BDBDBD" stroke-width="1.29377"/>
<line x1="54" y1="28.31" x2="141" y2="28.31" stroke="#BDBDBD" stroke-width="1.29377"/>
<circle cx="167" cy="66.9568" r="10" fill="#BDBDBD"/>
<circle cx="32" cy="114.957" r="10" fill="#BDBDBD"/>
<circle cx="32" cy="18.9569" r="10" fill="#BDBDBD"/>
<defs>
<filter id="filter0_d_5_189" x="43.4125" y="48.9568" width="149.175" height="41.1751" filterUnits="userSpaceOnUse" color-interpolation-filters="sRGB">
<feFlood flood-opacity="0" result="BackgroundImageFix"/>
<feColorMatrix in="SourceAlpha" type="matrix" values="0 0 0 0 0 0 0 0 0 0 0 0 0 0 0 0 0 0 127 0" result="hardAlpha"/>
<feOffset dy="2.58754"/>
<feGaussianBlur stdDeviation="1.29377"/>
<feComposite in2="hardAlpha" operator="out"/>
<feColorMatrix type="matrix" values="0 0 0 0 0 0 0 0 0 0 0 0 0 0 0 0 0 0 0.25 0"/>
<feBlend mode="normal" in2="BackgroundImageFix" result="effect1_dropShadow_5_189"/>
<feBlend mode="normal" in="SourceGraphic" in2="effect1_dropShadow_5_189" result="shape"/>
</filter>
<filter id="filter1_d_5_189" x="7.41246" y="96.9568" width="149.175" height="41.1751" filterUnits="userSpaceOnUse" color-interpolation-filters="sRGB">
<feFlood flood-opacity="0" result="BackgroundImageFix"/>
<feColorMatrix in="SourceAlpha" type="matrix" values="0 0 0 0 0 0 0 0 0 0 0 0 0 0 0 0 0 0 127 0" result="hardAlpha"/>
<feOffset dy="2.58754"/>
<feGaussianBlur stdDeviation="1.29377"/>
<feComposite in2="hardAlpha" operator="out"/>
<feColorMatrix type="matrix" values="0 0 0 0 0 0 0 0 0 0 0 0 0 0 0 0 0 0 0.25 0"/>
<feBlend mode="normal" in2="BackgroundImageFix" result="effect1_dropShadow_5_189"/>
<feBlend mode="normal" in="SourceGraphic" in2="effect1_dropShadow_5_189" result="shape"/>
</filter>
<filter id="filter2_d_5_189" x="7.41246" y="0.956863" width="149.175" height="41.1751" filterUnits="userSpaceOnUse" color-interpolation-filters="sRGB">
<feFlood flood-opacity="0" result="BackgroundImageFix"/>
<feColorMatrix in="SourceAlpha" type="matrix" values="0 0 0 0 0 0 0 0 0 0 0 0 0 0 0 0 0 0 127 0" result="hardAlpha"/>
<feOffset dy="2.58754"/>
<feGaussianBlur stdDeviation="1.29377"/>
<feComposite in2="hardAlpha" operator="out"/>
<feColorMatrix type="matrix" values="0 0 0 0 0 0 0 0 0 0 0 0 0 0 0 0 0 0 0.25 0"/>
<feBlend mode="normal" in2="BackgroundImageFix" result="effect1_dropShadow_5_189"/>
<feBlend mode="normal" in="SourceGraphic" in2="effect1_dropShadow_5_189" result="shape"/>
</filter>
</defs>
</svg>
