<svg width="207" height="237" viewBox="0 0 207 237" fill="none" xmlns="http://www.w3.org/2000/svg">
<path d="M42.238 227.381C42.238 228.711 41.16 230.055 39.088 230.055C37.128 230.055 35.84 228.935 35.784 227.437H36.82C36.904 228.249 37.506 229.229 39.088 229.229C40.446 229.229 41.244 228.431 41.244 227.423C41.244 224.539 35.868 226.359 35.868 222.677C35.868 221.165 37.114 220.059 39.004 220.059C40.866 220.059 41.986 221.095 42.154 222.439H41.09C40.978 221.753 40.32 220.913 38.962 220.899C37.814 220.885 36.862 221.515 36.862 222.649C36.862 225.477 42.238 223.741 42.238 227.381ZM44.4117 227.885V223.139H43.3477V222.313H44.4117V220.395H45.4057V222.313H47.5057V223.139H45.4057V227.885C45.4057 228.823 45.7277 229.117 46.6097 229.117H47.5057V229.957H46.4557C45.1257 229.957 44.4117 229.411 44.4117 227.885ZM48.674 226.121C48.674 223.727 50.228 222.201 52.328 222.201C53.868 222.201 54.918 223.027 55.352 223.993V222.313H56.332V229.957H55.352V228.263C54.904 229.243 53.84 230.069 52.314 230.069C50.228 230.069 48.674 228.515 48.674 226.121ZM55.352 226.135C55.352 224.231 54.078 223.055 52.51 223.055C50.9 223.055 49.668 224.175 49.668 226.121C49.668 228.053 50.9 229.215 52.51 229.215C54.078 229.215 55.352 228.039 55.352 226.135ZM59.5492 225.687V229.957H58.5692V222.313H59.5492V223.671C59.9692 222.733 60.8512 222.173 62.1672 222.173V223.195H61.9012C60.6272 223.195 59.5492 223.769 59.5492 225.687ZM63.9215 227.885V223.139H62.8575V222.313H63.9215V220.395H64.9155V222.313H67.0155V223.139H64.9155V227.885C64.9155 228.823 65.2375 229.117 66.1195 229.117H67.0155V229.957H65.9655C64.6355 229.957 63.9215 229.411 63.9215 227.885ZM72.0255 226.121C72.0255 223.727 73.5795 222.201 75.6795 222.201C77.2195 222.201 78.2695 223.027 78.7035 223.993V222.313H79.6835V229.957H78.7035V228.263C78.2555 229.243 77.1915 230.069 75.6655 230.069C73.5795 230.069 72.0255 228.515 72.0255 226.121ZM78.7035 226.135C78.7035 224.231 77.4295 223.055 75.8615 223.055C74.2515 223.055 73.0195 224.175 73.0195 226.121C73.0195 228.053 74.2515 229.215 75.8615 229.215C77.4295 229.215 78.7035 228.039 78.7035 226.135ZM85.3146 225.057C85.3146 222.117 87.3866 220.059 90.1026 220.059C92.2866 220.059 93.9106 221.151 94.6106 223.027H93.4626C92.9166 221.725 91.7686 220.913 90.1026 220.913C87.9606 220.913 86.3226 222.495 86.3226 225.057C86.3226 227.605 87.9606 229.187 90.1026 229.187C91.7686 229.187 92.9166 228.375 93.4626 227.101H94.6106C93.9106 228.949 92.2866 230.041 90.1026 230.041C87.3866 230.041 85.3146 227.997 85.3146 225.057ZM103.759 226.135C103.759 228.557 102.065 230.069 99.9094 230.069C97.7534 230.069 96.1154 228.557 96.1154 226.135C96.1154 223.699 97.7954 222.201 99.9374 222.201C102.093 222.201 103.759 223.699 103.759 226.135ZM97.1094 226.135C97.1094 228.235 98.4534 229.215 99.9094 229.215C101.351 229.215 102.751 228.235 102.751 226.135C102.751 224.035 101.379 223.055 99.9234 223.055C98.4674 223.055 97.1094 224.035 97.1094 226.135ZM111.272 229.957V225.589C111.272 223.895 110.348 223.027 108.948 223.027C107.52 223.027 106.526 223.923 106.526 225.785V229.957H105.546V222.313H106.526V223.615C107.016 222.663 107.996 222.173 109.13 222.173C110.866 222.173 112.238 223.237 112.238 225.477V229.957H111.272ZM113.495 222.313H114.545L117.121 229.005L119.697 222.313H120.733L117.667 229.957H116.561L113.495 222.313ZM125.323 223.041C123.937 223.041 122.719 223.937 122.607 225.715H127.983C128.025 223.937 126.737 223.041 125.323 223.041ZM128.865 227.535C128.515 228.977 127.283 230.069 125.365 230.069C123.195 230.069 121.613 228.557 121.613 226.135C121.613 223.699 123.167 222.201 125.365 222.201C127.605 222.201 128.977 223.797 128.977 225.743C128.977 226.051 128.977 226.247 128.949 226.513H122.607C122.691 228.305 123.937 229.243 125.365 229.243C126.667 229.243 127.549 228.557 127.829 227.535H128.865ZM131.75 225.687V229.957H130.77V222.313H131.75V223.671C132.17 222.733 133.052 222.173 134.368 222.173V223.195H134.102C132.828 223.195 131.75 223.769 131.75 225.687ZM141.135 227.927C141.135 229.159 140.057 230.069 138.475 230.069C136.739 230.069 135.521 229.201 135.395 227.801H136.403C136.487 228.641 137.215 229.243 138.461 229.243C139.553 229.243 140.169 228.655 140.169 227.927C140.169 226.037 135.577 227.143 135.577 224.273C135.577 223.139 136.655 222.201 138.265 222.201C139.903 222.201 140.981 223.069 141.065 224.539H140.085C140.029 223.685 139.399 223.041 138.237 223.041C137.215 223.041 136.571 223.587 136.571 224.259C136.571 226.331 141.093 225.225 141.135 227.927ZM142.531 226.121C142.531 223.727 144.085 222.201 146.185 222.201C147.725 222.201 148.775 223.027 149.209 223.993V222.313H150.189V229.957H149.209V228.263C148.761 229.243 147.697 230.069 146.171 230.069C144.085 230.069 142.531 228.515 142.531 226.121ZM149.209 226.135C149.209 224.231 147.935 223.055 146.367 223.055C144.757 223.055 143.525 224.175 143.525 226.121C143.525 228.053 144.757 229.215 146.367 229.215C147.935 229.215 149.209 228.039 149.209 226.135ZM152.707 227.885V223.139H151.643V222.313H152.707V220.395H153.701V222.313H155.801V223.139H153.701V227.885C153.701 228.823 154.023 229.117 154.905 229.117H155.801V229.957H154.751C153.421 229.957 152.707 229.411 152.707 227.885ZM157.417 229.957V222.313H158.397V229.957H157.417ZM157.907 220.871C157.515 220.871 157.193 220.563 157.193 220.143C157.193 219.723 157.515 219.429 157.907 219.429C158.299 219.429 158.621 219.723 158.621 220.143C158.621 220.563 158.299 220.871 157.907 220.871ZM167.812 226.135C167.812 228.557 166.118 230.069 163.962 230.069C161.806 230.069 160.168 228.557 160.168 226.135C160.168 223.699 161.848 222.201 163.99 222.201C166.146 222.201 167.812 223.699 167.812 226.135ZM161.162 226.135C161.162 228.235 162.506 229.215 163.962 229.215C165.404 229.215 166.804 228.235 166.804 226.135C166.804 224.035 165.432 223.055 163.976 223.055C162.52 223.055 161.162 224.035 161.162 226.135ZM175.325 229.957V225.589C175.325 223.895 174.401 223.027 173.001 223.027C171.573 223.027 170.579 223.923 170.579 225.785V229.957H169.599V222.313H170.579V223.615C171.069 222.663 172.049 222.173 173.183 222.173C174.919 222.173 176.291 223.237 176.291 225.477V229.957H175.325Z" fill="#414141"/>
<path fill-rule="evenodd" clip-rule="evenodd" d="M104.19 1.04448C136.889 1.8915 168.926 14.4822 188.648 40.4943C207.808 65.7649 211.523 99.6792 201.854 129.854C193.089 157.208 168.229 174.019 142.034 185.966C116.665 197.537 85.818 209.009 62.8207 193.265C41.2698 178.512 54.4323 145.609 46.7112 120.711C37.2788 90.2941 0.250134 64.6864 14.0428 35.9714C28.6906 5.47583 70.2831 0.166147 104.19 1.04448Z" fill="#D9D9D9"/>
<path fill-rule="evenodd" clip-rule="evenodd" d="M94.1903 1.04448C126.889 1.8915 158.926 14.4822 178.648 40.4943C197.808 65.7649 201.523 99.6792 191.854 129.854C183.089 157.208 158.229 174.019 132.034 185.966C106.665 197.537 75.818 209.009 52.8207 193.265C31.2698 178.512 44.4323 145.609 36.7112 120.711C27.2788 90.2941 -9.74987 64.6864 4.04276 35.9714C18.6906 5.47583 60.2831 0.166147 94.1903 1.04448Z" stroke="#BDBDBD" stroke-width="1.5" stroke-linecap="round" stroke-linejoin="round" stroke-dasharray="3 3"/>
<path d="M67.6705 95.3205V106.957H66.0568L60.142 98.4228H60.0341V106.957H58.2784V95.3205H59.9034L65.8239 103.866H65.9318V95.3205H67.6705ZM73.7713 107.133C72.9531 107.133 72.2391 106.945 71.6293 106.57C71.0194 106.195 70.5459 105.671 70.2088 104.997C69.8717 104.322 69.7031 103.534 69.7031 102.633C69.7031 101.728 69.8717 100.936 70.2088 100.258C70.5459 99.58 71.0194 99.0534 71.6293 98.6784C72.2391 98.3034 72.9531 98.1159 73.7713 98.1159C74.5895 98.1159 75.3035 98.3034 75.9134 98.6784C76.5232 99.0534 76.9967 99.58 77.3338 100.258C77.6709 100.936 77.8395 101.728 77.8395 102.633C77.8395 103.534 77.6709 104.322 77.3338 104.997C76.9967 105.671 76.5232 106.195 75.9134 106.57C75.3035 106.945 74.5895 107.133 73.7713 107.133ZM73.777 105.707C74.3073 105.707 74.7467 105.567 75.0952 105.286C75.4437 105.006 75.7012 104.633 75.8679 104.167C76.0384 103.701 76.1236 103.188 76.1236 102.627C76.1236 102.07 76.0384 101.559 75.8679 101.093C75.7012 100.624 75.4437 100.247 75.0952 99.9625C74.7467 99.6784 74.3073 99.5364 73.777 99.5364C73.2429 99.5364 72.7997 99.6784 72.4474 99.9625C72.099 100.247 71.8395 100.624 71.669 101.093C71.5024 101.559 71.419 102.07 71.419 102.627C71.419 103.188 71.5024 103.701 71.669 104.167C71.8395 104.633 72.099 105.006 72.4474 105.286C72.7997 105.567 73.2429 105.707 73.777 105.707ZM84.1065 95.3205H86.2372L89.9418 104.366H90.0781L93.7827 95.3205H95.9134V106.957H94.2429V98.5364H94.1349L90.7031 106.94H89.3168L85.8849 98.5307H85.777V106.957H84.1065V95.3205ZM102.091 107.133C101.231 107.133 100.491 106.949 99.8693 106.582C99.2519 106.211 98.7746 105.69 98.4375 105.019C98.1042 104.345 97.9375 103.555 97.9375 102.65C97.9375 101.756 98.1042 100.968 98.4375 100.286C98.7746 99.6046 99.2443 99.0724 99.8466 98.6898C100.453 98.3072 101.161 98.1159 101.972 98.1159C102.464 98.1159 102.941 98.1974 103.403 98.3603C103.866 98.5231 104.28 98.7788 104.648 99.1273C105.015 99.4758 105.305 99.9284 105.517 100.485C105.729 101.038 105.835 101.711 105.835 102.502V103.105H98.8977V101.832H104.17C104.17 101.385 104.08 100.989 103.898 100.644C103.716 100.296 103.46 100.021 103.131 99.8205C102.805 99.6197 102.422 99.5193 101.983 99.5193C101.506 99.5193 101.089 99.6368 100.733 99.8716C100.381 100.103 100.108 100.406 99.9148 100.781C99.7254 101.152 99.6307 101.555 99.6307 101.991V102.985C99.6307 103.569 99.733 104.065 99.9375 104.474C100.146 104.883 100.436 105.195 100.807 105.411C101.178 105.624 101.612 105.73 102.108 105.73C102.43 105.73 102.723 105.684 102.989 105.593C103.254 105.499 103.483 105.358 103.676 105.173C103.869 104.987 104.017 104.758 104.119 104.485L105.727 104.775C105.598 105.249 105.367 105.663 105.034 106.019C104.705 106.372 104.29 106.646 103.79 106.843C103.294 107.036 102.727 107.133 102.091 107.133ZM114.26 100.36L112.72 100.633C112.656 100.436 112.554 100.249 112.413 100.07C112.277 99.8925 112.091 99.7466 111.857 99.633C111.622 99.5193 111.328 99.4625 110.976 99.4625C110.495 99.4625 110.093 99.5705 109.771 99.7864C109.449 99.9985 109.288 100.273 109.288 100.61C109.288 100.902 109.396 101.137 109.612 101.315C109.828 101.493 110.177 101.639 110.658 101.752L112.044 102.07C112.847 102.256 113.446 102.542 113.839 102.928C114.233 103.315 114.43 103.817 114.43 104.434C114.43 104.957 114.279 105.423 113.976 105.832C113.677 106.237 113.258 106.555 112.72 106.786C112.186 107.017 111.567 107.133 110.862 107.133C109.885 107.133 109.088 106.925 108.47 106.508C107.853 106.088 107.474 105.491 107.334 104.718L108.976 104.468C109.078 104.896 109.288 105.22 109.607 105.44C109.925 105.656 110.339 105.764 110.851 105.764C111.408 105.764 111.853 105.648 112.186 105.417C112.519 105.182 112.686 104.896 112.686 104.559C112.686 104.286 112.584 104.057 112.379 103.872C112.179 103.686 111.87 103.546 111.453 103.451L109.976 103.127C109.161 102.942 108.559 102.646 108.169 102.241C107.783 101.836 107.589 101.322 107.589 100.701C107.589 100.186 107.733 99.7353 108.021 99.3489C108.309 98.9625 108.707 98.6614 109.214 98.4455C109.722 98.2258 110.304 98.1159 110.959 98.1159C111.902 98.1159 112.644 98.3205 113.186 98.7296C113.728 99.1349 114.086 99.6784 114.26 100.36ZM122.838 100.36L121.298 100.633C121.234 100.436 121.132 100.249 120.991 100.07C120.855 99.8925 120.67 99.7466 120.435 99.633C120.2 99.5193 119.906 99.4625 119.554 99.4625C119.073 99.4625 118.671 99.5705 118.349 99.7864C118.027 99.9985 117.866 100.273 117.866 100.61C117.866 100.902 117.974 101.137 118.19 101.315C118.406 101.493 118.755 101.639 119.236 101.752L120.622 102.07C121.425 102.256 122.024 102.542 122.418 102.928C122.812 103.315 123.009 103.817 123.009 104.434C123.009 104.957 122.857 105.423 122.554 105.832C122.255 106.237 121.836 106.555 121.298 106.786C120.764 107.017 120.145 107.133 119.44 107.133C118.463 107.133 117.666 106.925 117.048 106.508C116.431 106.088 116.052 105.491 115.912 104.718L117.554 104.468C117.656 104.896 117.866 105.22 118.185 105.44C118.503 105.656 118.918 105.764 119.429 105.764C119.986 105.764 120.431 105.648 120.764 105.417C121.098 105.182 121.264 104.896 121.264 104.559C121.264 104.286 121.162 104.057 120.957 103.872C120.757 103.686 120.448 103.546 120.031 103.451L118.554 103.127C117.74 102.942 117.137 102.646 116.747 102.241C116.361 101.836 116.168 101.322 116.168 100.701C116.168 100.186 116.312 99.7353 116.599 99.3489C116.887 98.9625 117.285 98.6614 117.793 98.4455C118.3 98.2258 118.882 98.1159 119.537 98.1159C120.48 98.1159 121.223 98.3205 121.764 98.7296C122.306 99.1349 122.664 99.6784 122.838 100.36ZM127.416 107.15C126.863 107.15 126.363 107.048 125.916 106.843C125.469 106.635 125.115 106.334 124.854 105.94C124.596 105.546 124.467 105.063 124.467 104.491C124.467 103.999 124.562 103.593 124.751 103.275C124.941 102.957 125.196 102.705 125.518 102.519C125.84 102.334 126.2 102.194 126.598 102.099C126.996 102.004 127.401 101.932 127.814 101.883C128.337 101.822 128.761 101.773 129.087 101.735C129.412 101.694 129.649 101.627 129.797 101.536C129.945 101.445 130.018 101.298 130.018 101.093V101.053C130.018 100.557 129.878 100.173 129.598 99.9C129.321 99.6273 128.909 99.4909 128.359 99.4909C127.787 99.4909 127.337 99.6178 127.007 99.8716C126.681 100.122 126.456 100.4 126.331 100.707L124.734 100.343C124.924 99.8129 125.2 99.3849 125.564 99.0591C125.931 98.7296 126.354 98.4909 126.831 98.3432C127.308 98.1917 127.81 98.1159 128.337 98.1159C128.685 98.1159 129.054 98.1576 129.445 98.2409C129.839 98.3205 130.206 98.4682 130.547 98.6841C130.892 98.9 131.174 99.2087 131.393 99.6103C131.613 100.008 131.723 100.525 131.723 101.161V106.957H130.064V105.764H129.996C129.886 105.983 129.721 106.199 129.501 106.411C129.282 106.624 129 106.8 128.655 106.94C128.31 107.08 127.897 107.15 127.416 107.15ZM127.786 105.786C128.255 105.786 128.657 105.694 128.99 105.508C129.327 105.322 129.583 105.08 129.757 104.781C129.935 104.478 130.024 104.154 130.024 103.809V102.684C129.964 102.745 129.846 102.802 129.672 102.855C129.501 102.904 129.306 102.947 129.087 102.985C128.867 103.019 128.653 103.052 128.445 103.082C128.236 103.108 128.062 103.131 127.922 103.15C127.592 103.192 127.291 103.262 127.018 103.36C126.75 103.459 126.534 103.601 126.371 103.786C126.212 103.968 126.132 104.211 126.132 104.514C126.132 104.934 126.287 105.252 126.598 105.468C126.909 105.68 127.304 105.786 127.786 105.786ZM137.645 110.411C136.952 110.411 136.355 110.32 135.855 110.139C135.359 109.957 134.954 109.716 134.639 109.417C134.325 109.118 134.09 108.79 133.935 108.434L135.395 107.832C135.497 107.999 135.634 108.175 135.804 108.36C135.978 108.55 136.213 108.711 136.509 108.843C136.808 108.976 137.192 109.042 137.662 109.042C138.306 109.042 138.838 108.885 139.259 108.57C139.679 108.26 139.889 107.764 139.889 107.082V105.366H139.781C139.679 105.552 139.531 105.758 139.338 105.985C139.149 106.213 138.887 106.409 138.554 106.576C138.221 106.743 137.787 106.826 137.253 106.826C136.563 106.826 135.942 106.665 135.389 106.343C134.84 106.017 134.404 105.538 134.082 104.906C133.764 104.269 133.605 103.487 133.605 102.559C133.605 101.631 133.762 100.836 134.077 100.173C134.395 99.5099 134.83 99.0023 135.384 98.65C135.937 98.294 136.563 98.1159 137.264 98.1159C137.806 98.1159 138.243 98.2068 138.577 98.3887C138.91 98.5667 139.17 98.775 139.355 99.0137C139.545 99.2523 139.69 99.4625 139.793 99.6443H139.918V98.2296H141.582V107.15C141.582 107.9 141.408 108.516 141.06 108.997C140.711 109.478 140.24 109.834 139.645 110.065C139.054 110.296 138.387 110.411 137.645 110.411ZM137.628 105.417C138.116 105.417 138.529 105.303 138.866 105.076C139.207 104.845 139.465 104.516 139.639 104.088C139.817 103.656 139.906 103.139 139.906 102.536C139.906 101.949 139.819 101.432 139.645 100.985C139.471 100.538 139.215 100.19 138.878 99.9398C138.541 99.686 138.124 99.5591 137.628 99.5591C137.116 99.5591 136.69 99.6917 136.349 99.9568C136.009 100.218 135.751 100.574 135.577 101.025C135.406 101.476 135.321 101.98 135.321 102.536C135.321 103.108 135.408 103.61 135.582 104.042C135.757 104.474 136.014 104.811 136.355 105.053C136.7 105.296 137.124 105.417 137.628 105.417ZM147.622 107.133C146.762 107.133 146.022 106.949 145.401 106.582C144.783 106.211 144.306 105.69 143.969 105.019C143.635 104.345 143.469 103.555 143.469 102.65C143.469 101.756 143.635 100.968 143.969 100.286C144.306 99.6046 144.776 99.0724 145.378 98.6898C145.984 98.3072 146.692 98.1159 147.503 98.1159C147.995 98.1159 148.473 98.1974 148.935 98.3603C149.397 98.5231 149.812 98.7788 150.179 99.1273C150.546 99.4758 150.836 99.9284 151.048 100.485C151.26 101.038 151.366 101.711 151.366 102.502V103.105H144.429V101.832H149.702C149.702 101.385 149.611 100.989 149.429 100.644C149.247 100.296 148.991 100.021 148.662 99.8205C148.336 99.6197 147.954 99.5193 147.514 99.5193C147.037 99.5193 146.62 99.6368 146.264 99.8716C145.912 100.103 145.639 100.406 145.446 100.781C145.257 101.152 145.162 101.555 145.162 101.991V102.985C145.162 103.569 145.264 104.065 145.469 104.474C145.677 104.883 145.967 105.195 146.338 105.411C146.709 105.624 147.143 105.73 147.639 105.73C147.961 105.73 148.255 105.684 148.52 105.593C148.785 105.499 149.014 105.358 149.207 105.173C149.401 104.987 149.548 104.758 149.651 104.485L151.259 104.775C151.13 105.249 150.899 105.663 150.565 106.019C150.236 106.372 149.821 106.646 149.321 106.843C148.825 107.036 148.259 107.133 147.622 107.133ZM159.791 100.36L158.251 100.633C158.187 100.436 158.085 100.249 157.945 100.07C157.808 99.8925 157.623 99.7466 157.388 99.633C157.153 99.5193 156.859 99.4625 156.507 99.4625C156.026 99.4625 155.625 99.5705 155.303 99.7864C154.981 99.9985 154.82 100.273 154.82 100.61C154.82 100.902 154.928 101.137 155.143 101.315C155.359 101.493 155.708 101.639 156.189 101.752L157.575 102.07C158.378 102.256 158.977 102.542 159.371 102.928C159.765 103.315 159.962 103.817 159.962 104.434C159.962 104.957 159.81 105.423 159.507 105.832C159.208 106.237 158.789 106.555 158.251 106.786C157.717 107.017 157.098 107.133 156.393 107.133C155.416 107.133 154.619 106.925 154.001 106.508C153.384 106.088 153.005 105.491 152.865 104.718L154.507 104.468C154.609 104.896 154.82 105.22 155.138 105.44C155.456 105.656 155.871 105.764 156.382 105.764C156.939 105.764 157.384 105.648 157.717 105.417C158.051 105.182 158.217 104.896 158.217 104.559C158.217 104.286 158.115 104.057 157.911 103.872C157.71 103.686 157.401 103.546 156.984 103.451L155.507 103.127C154.693 102.942 154.09 102.646 153.7 102.241C153.314 101.836 153.121 101.322 153.121 100.701C153.121 100.186 153.265 99.7353 153.553 99.3489C153.84 98.9625 154.238 98.6614 154.746 98.4455C155.253 98.2258 155.835 98.1159 156.49 98.1159C157.433 98.1159 158.176 98.3205 158.717 98.7296C159.259 99.1349 159.617 99.6784 159.791 100.36Z" fill="#414141"/>
</svg>
